#!OML:ASF E:\emotionWalksFemale\Project 1\Capture day 1\Session 1\Female1.ASF
:FULLY-SPECIFIED
:DEGREES
1813
root 9.46199 15.2964 -37.1043 360.178 -12.0316 -360.497
lowerback 5.67428 -1.21379 -0.467878
upperback -3.96656 -1.6541 0.27453
thorax -7.31426 -0.782571 0.74721
lowerneck 9.47378 -18.6701 -18.5969
upperneck 5.57362 -27.2177 11.5014
head 4.24262 -13.9345 4.98107
rclavicle -1.61e-014 -9.93923e-017
rhumerus -37.9687 10.4905 -90.4083
rradius 32.1333
rwrist 21.0657
rhand -0.823689 -53.5989
rfingers 7.12502
rthumb 24.8012 277.989
lclavicle -1.61e-014 -9.93923e-017
lhumerus -41.0488 -1.59761 90.4891
lradius 38.3016
lwrist -12.3944
lhand 5.9883 -33.2869
lfingers 7.12502
lthumb 31.3122 -5.94538
rfemur -3.90822 21.7823 30.1904
rtibia 24.6018
rfoot -20.3467 -21.5993
rtoes 9.41633
lfemur -10.8362 -7.79901 -18.9082
ltibia 32.5305
lfoot -25.827 21.4623
ltoes -38.2198
1814
root 9.46188 15.2953 -37.1017 360.141 -12.0219 -360.534
lowerback 5.69347 -1.21353 -0.438436
upperback -3.96242 -1.65154 0.26874
thorax -7.32201 -0.782898 0.724771
lowerneck 9.45689 -18.6776 -18.5498
upperneck 5.58488 -27.2197 11.4707
head 4.23846 -13.9345 4.96619
rclavicle -2.79758e-014 -5.54112e-015
rhumerus -37.9079 10.4304 -90.4067
rradius 32.0263
rwrist 21.376
rhand -0.92205 -53.2675
rfingers 7.12502
rthumb 24.7069 278.308
lclavicle -2.79758e-014 -5.54112e-015
lhumerus -41.0907 -1.48109 90.4211
lradius 38.06
lwrist -12.6429
lhand 6.51834 -33.7332
lfingers 7.12502
lthumb 31.8171 -6.49079
rfemur -3.81898 21.8794 30.2675
rtibia 24.5742
rfoot -20.1973 -21.7247
rtoes 9.34656
lfemur -10.8099 -7.8072 -18.8799
ltibia 32.5916
lfoot -25.808 21.5168
ltoes -38.2673
1815
root 9.4609 15.2946 -37.1 360.145 -12.0763 -360.566
lowerback 5.68515 -1.20572 -0.450344
upperback -3.99494 -1.64127 0.284389
thorax -7.35129 -0.776599 0.746956
lowerneck 9.48703 -18.6423 -18.5297
upperneck 5.58548 -27.1707 11.4156
head 4.21655 -13.9117 4.95999
rclavicle -2.77553e-014 -3.85145e-015
rhumerus -37.9159 10.672 -90.5571
rradius 32.1761
rwrist 20.8818
rhand -0.781434 -53.3986
rfingers 7.12502
rthumb 24.8417 278.195
lclavicle -2.77553e-014 -3.85145e-015
lhumerus -41.2357 -1.45272 90.379
lradius 37.7691
lwrist -12.7837
lhand 6.55302 -33.8607
lfingers 7.12502
lthumb 31.8501 -6.62485
rfemur -3.80899 21.9698 30.3107
rtibia 24.5472
rfoot -19.9447 -21.8128
rtoes 8.42264
lfemur -10.8117 -7.77086 -18.8398
ltibia 32.6522
lfoot -25.9933 21.3429
ltoes -37.3744
1816
root 9.46037 15.2948 -37.0994 360.176 -12.1042 -360.568
lowerback 5.70494 -1.21988 -0.522106
upperback -4.09423 -1.66419 0.332665
thorax -7.46527 -0.781863 0.842727
lowerneck 9.66847 -18.5657 -18.6372
upperneck 5.57825 -27.1026 11.3717
head 4.18486 -13.887 4.98743
rclavicle -1.37006e-014 -3.98812e-015
rhumerus -38.0522 10.9385 -90.6794
rradius 32.3399
rwrist 20.2559
rhand -0.924058 -53.2084
rfingers 7.12502
rthumb 24.705 278.367
lclavicle -1.37006e-014 -3.98812e-015
lhumerus -41.6418 -1.42648 90.4262
lradius 37.5395
lwrist -13.2573
lhand 4.67693 -33.7817
lfingers 7.12502
lthumb 30.0618 -6.20565
rfemur -3.84332 21.9858 30.2966
rtibia 24.5339
rfoot -19.9484 -21.8255
rtoes 8.52391
lfemur -10.8524 -7.69851 -18.8226
ltibia 32.6956
lfoot -26.1598 21.0807
ltoes -36.6132
1817
root 9.45938 15.2945 -37.0967 360.205 -12.1125 -360.592
lowerback 5.65081 -1.23877 -0.556527
upperback -4.15048 -1.68961 0.378736
thorax -7.49126 -0.791005 0.912916
lowerneck 9.80452 -18.4914 -18.7397
upperneck 5.58474 -27.0318 11.3395
head 4.16485 -13.8593 5.01215
rclavicle -8.98646e-015 7.61594e-015
rhumerus -38.1753 11.2167 -90.8114
rradius 32.1696
rwrist 20.4864
rhand -2.06003 -52.0287
rfingers 7.12502
rthumb 23.6158 279.402
lclavicle -8.98646e-015 7.61594e-015
lhumerus -41.9791 -1.33001 90.4108
lradius 37.1892
lwrist -14.1194
lhand 1.78484 -34.6067
lfingers 7.12502
lthumb 27.2988 -6.56299
rfemur -3.85061 21.987 30.3187
rtibia 24.542
rfoot -20.0879 -21.7993
rtoes 9.5022
lfemur -10.8791 -7.63277 -18.7924
ltibia 32.7202
lfoot -26.0383 21.1458
ltoes -37.211
1818
root 9.45805 15.2928 -37.0927 360.203 -12.1463 -360.632
lowerback 5.55845 -1.20435 -0.546525
upperback -4.12103 -1.64176 0.381458
thorax -7.40705 -0.768724 0.901499
lowerneck 9.73027 -18.4874 -18.6953
upperneck 5.65319 -27.0115 11.2929
head 4.182 -13.8469 4.98705
rclavicle 5.96199e-015 -4.72114e-016
rhumerus -38.002 11.0861 -90.727
rradius 32.2812
rwrist 19.7698
rhand -1.83673 -51.9225
rfingers 7.12502
rthumb 23.83 279.536
lclavicle 5.96199e-015 -4.72114e-016
lhumerus -42.0025 -1.31217 90.311
lradius 37.2343
lwrist -13.3824
lhand 2.19384 -34.8571
lfingers 7.12502
lthumb 27.69 -6.87555
rfemur -3.83968 22.0296 30.3768
rtibia 24.5855
rfoot -20.0831 -21.7842
rtoes 9.45906
lfemur -10.8352 -7.62521 -18.7593
ltibia 32.7145
lfoot -26.1225 21.172
ltoes -37.0058
1819
root 9.45654 15.2962 -37.0948 360.357 -12.0002 -360.631
lowerback 5.51021 -1.20691 -0.601969
upperback -4.19916 -1.6495 0.394241
thorax -7.46061 -0.768798 0.946998
lowerneck 9.59348 -18.5148 -18.6214
upperneck 5.7552 -27.0188 11.1878
head 4.21086 -13.8458 4.9315
rclavicle -3.37856e-014 -7.57867e-016
rhumerus -37.9877 11.0388 -90.6632
rradius 32.2264
rwrist 20.9188
rhand -1.45948 -52.9582
rfingers 7.12502
rthumb 24.1917 278.548
lclavicle -3.37856e-014 -7.57867e-016
lhumerus -42.148 -1.41931 90.3328
lradius 36.9713
lwrist -13.7769
lhand 1.58359 -34.6148
lfingers 7.12502
lthumb 27.1063 -6.54095
rfemur -4.05066 21.9221 30.3144
rtibia 24.6418
rfoot -19.9574 -21.8992
rtoes 8.24906
lfemur -11.0334 -7.68659 -18.7339
ltibia 32.6719
lfoot -26.0952 21.0967
ltoes -36.8102
1820
root 9.45473 15.2975 -37.0989 360.345 -11.8468 -360.568
lowerback 5.53754 -1.26143 -0.670107
upperback -4.20416 -1.73021 0.374165
thorax -7.47903 -0.805257 0.974482
lowerneck 9.51434 -18.4784 -18.624
upperneck 5.7888 -26.9592 11.1834
head 4.22431 -13.8141 4.92832
rclavicle 9.14565e-015 3.35449e-015
rhumerus -37.8934 11.2269 -90.802
rradius 32.8576
rwrist 19.5319
rhand 0.0210267 -55.0391
rfingers 7.12502
rthumb 25.6105 276.663
lclavicle 9.14565e-015 3.35449e-015
lhumerus -42.3569 -1.49926 90.3031
lradius 36.7512
lwrist -14.3921
lhand -0.768547 -35.9608
lfingers 7.12502
lthumb 24.854 -7.55635
rfemur -4.07711 21.7145 30.2546
rtibia 24.6975
rfoot -19.9383 -21.9134
rtoes 7.63692
lfemur -11.0623 -7.68169 -18.7837
ltibia 32.6253
lfoot -25.9067 21.0967
ltoes -37.477
1821
root 9.45267 15.2976 -37.099 360.333 -11.7135 -360.518
lowerback 5.57197 -1.30662 -0.781861
upperback -4.23916 -1.79993 0.393754
thorax -7.53125 -0.832465 1.06751
lowerneck 9.50375 -18.4344 -18.6324
upperneck 5.80787 -26.8987 11.1623
head 4.22121 -13.7845 4.9296
rclavicle -1.49539e-014 2.49723e-015
rhumerus -37.8694 11.3077 -90.8133
rradius 33.0766
rwrist 19.1164
rhand 0.43118 -55.3947
rfingers 7.12502
rthumb 26.0033 276.365
lclavicle -1.49539e-014 2.49723e-015
lhumerus -42.6055 -1.61619 90.3545
lradius 36.4895
lwrist -14.8853
lhand -1.31364 -36.8228
lfingers 7.12502
lthumb 24.3316 -8.34725
rfemur -4.09722 21.7188 30.2143
rtibia 24.7467
rfoot -20.0918 -21.9386
rtoes 8.16592
lfemur -11.0643 -7.8216 -18.832
ltibia 32.5984
lfoot -25.9044 21.1073
ltoes -37.5515
